<svg xmlns="http://www.w3.org/2000/svg" viewBox="0 0 10 10" id="Design-Layer--Streamline-Pixel.svg" height="10" width="10"><title>design-layer</title><g><path d="M9.2859375 2.6187500000000004h0.475V3.09375h-0.475Z" fill="#000000" stroke-width="1"></path><path d="M8.3328125 3.09375h0.953125v0.478125h-0.953125Z" fill="#000000" stroke-width="1"></path><path d="M8.3328125 2.1437500000000003h0.953125v0.475h-0.953125Z" fill="#000000" stroke-width="1"></path><path d="m7.379687499999999 7.3812500000000005 0 0.475 -0.95 0 0 0.478125 -0.953125 0 0 0.475 -0.953125 0 0 -0.475 -0.953125 0 0 -0.478125 -0.95 0 0 -0.475 -0.953125 0 0 -0.478125 -1.428125 0 0 0.478125 0.475 0 0 0.475 0.953125 0 0 0.478125 0.953125 0 0 0.475 0.95 0 0 0.475 0.953125 0 0 0.478125 0.953125 0 0 -0.478125 0.953125 0 0 -0.475 0.95 0 0 -0.475 0.953125 0 0 -0.478125 0.953125 0 0 -0.475 0.475 0 0 -0.478125 -1.428125 0 0 0.478125 -0.953125 0z" fill="#000000" stroke-width="1"></path><path d="m7.379687499999999 5.953125 0 0.475 -0.95 0 0 0.475 -0.953125 0 0 0.478125 -0.953125 0 0 -0.478125 -0.953125 0 0 -0.475 -0.95 0 0 -0.475 -0.953125 0 0 -0.478125 -1.428125 0 0 0.478125 0.475 0 0 0.475 0.953125 0 0 0.475 0.953125 0 0 0.478125 0.95 0 0 0.475 0.953125 0 0 0.478125 0.953125 0 0 -0.478125 0.953125 0 0 -0.475 0.95 0 0 -0.478125 0.953125 0 0 -0.475 0.953125 0 0 -0.475 0.475 0 0 -0.478125 -1.428125 0 0 0.478125 -0.953125 0z" fill="#000000" stroke-width="1"></path><path d="m7.379687499999999 4.525 0 0.475 -0.95 0 0 0.475 -0.953125 0 0 0.478125 -0.953125 0 0 -0.478125 -0.953125 0 0 -0.475 -0.95 0 0 -0.475 -0.953125 0 0 -0.478125 -1.428125 0 0 0.478125 0.475 0 0 0.475 0.953125 0 0 0.475 0.953125 0 0 0.478125 0.95 0 0 0.475 0.953125 0 0 0.475 0.953125 0 0 -0.475 0.953125 0 0 -0.475 0.95 0 0 -0.478125 0.953125 0 0 -0.475 0.953125 0 0 -0.475 0.475 0 0 -0.478125 -1.428125 0 0 0.478125 -0.953125 0z" fill="#000000" stroke-width="1"></path><path d="M7.379687499999999 3.571875h0.953125v0.475h-0.953125Z" fill="#000000" stroke-width="1"></path><path d="M7.379687499999999 1.665625h0.953125v0.478125h-0.953125Z" fill="#000000" stroke-width="1"></path><path d="M6.4296875 4.046875h0.95v0.478125h-0.95Z" fill="#000000" stroke-width="1"></path><path d="M6.4296875 1.190625h0.95v0.475h-0.95Z" fill="#000000" stroke-width="1"></path><path d="M5.4765625 4.525h0.953125V5h-0.953125Z" fill="#000000" stroke-width="1"></path><path d="M5.4765625 0.715625h0.953125v0.475h-0.953125Z" fill="#000000" stroke-width="1"></path><path d="M4.5234375 5h0.953125v0.475h-0.953125Z" fill="#000000" stroke-width="1"></path><path d="M4.5234375 0.2375h0.953125v0.478125h-0.953125Z" fill="#000000" stroke-width="1"></path><path d="M3.5703125 4.525h0.953125V5h-0.953125Z" fill="#000000" stroke-width="1"></path><path d="M3.5703125 0.715625h0.953125v0.475h-0.953125Z" fill="#000000" stroke-width="1"></path><path d="M2.6203125 4.046875h0.95v0.478125h-0.95Z" fill="#000000" stroke-width="1"></path><path d="M2.6203125 1.190625h0.95v0.475h-0.95Z" fill="#000000" stroke-width="1"></path><path d="M1.6671875 3.571875h0.953125v0.475h-0.953125Z" fill="#000000" stroke-width="1"></path><path d="M1.6671875 1.665625h0.953125v0.478125h-0.953125Z" fill="#000000" stroke-width="1"></path><path d="M0.7140625 3.09375h0.953125v0.478125h-0.953125Z" fill="#000000" stroke-width="1"></path><path d="M0.7140625 2.1437500000000003h0.953125v0.475h-0.953125Z" fill="#000000" stroke-width="1"></path><path d="M0.2390625 2.6187500000000004h0.475V3.09375H0.2390625Z" fill="#000000" stroke-width="1"></path></g></svg>