<svg xmlns="http://www.w3.org/2000/svg" viewBox="0 0 10 10" id="Ui-Design-Website--Streamline-Pixel.svg" height="10" width="10"><title>ui-design-website</title><g><path d="m9.525 2.3828125 -9.046875 0 0 -1.428125 -0.478125 0 0 8.09375 0.478125 0 0 -6.190625 9.046875 0 0 6.190625 0.475 0 0 -8.09375 -0.475 0 0 1.428125z" fill="#000000" stroke-width="1"></path><path d="M0.478125 9.048437499999999h9.046875v0.475H0.478125Z" fill="#000000" stroke-width="1"></path><path d="M8.096875 6.1921875h0.475v1.428125h-0.475Z" fill="#000000" stroke-width="1"></path><path d="M7.6187499999999995 7.620312500000001h0.478125v0.475h-0.478125Z" fill="#000000" stroke-width="1"></path><path d="M7.6187499999999995 5.7140625h0.478125v0.478125h-0.478125Z" fill="#000000" stroke-width="1"></path><path d="M6.190625 8.0953125h1.428125v0.478125h-1.428125Z" fill="#000000" stroke-width="1"></path><path d="m7.6187499999999995 5.7140625 0 -0.475 -0.475 0 0 -1.903125 -5.715624999999999 0 0 2.85625 0.953125 0 0 -0.478125 -0.475 0 0 -1.903125 4.7625 0 0 1.428125 -0.478125 0 0 0.475 1.428125 0z" fill="#000000" stroke-width="1"></path><path d="M5.715624999999999 7.620312500000001h0.475v0.475h-0.475Z" fill="#000000" stroke-width="1"></path><path d="M5.715624999999999 5.7140625h0.475v0.478125h-0.475Z" fill="#000000" stroke-width="1"></path><path d="M5.237500000000001 6.1921875h0.478125v1.428125h-0.478125Z" fill="#000000" stroke-width="1"></path><path d="M2.85625 1.4296875h0.478125v0.475H2.85625Z" fill="#000000" stroke-width="1"></path><path d="m1.90625 6.667187500000001 0 0.478125 -0.478125 0 0 0.475 3.334375 0 0 -1.428125 -0.475 0 0 -0.478125 -0.478125 0 0 -0.475 -0.475 0 0 0.475 -0.478125 0 0 0.478125 -0.475 0 0 0.475 -0.475 0z" fill="#000000" stroke-width="1"></path><path d="M1.90625 1.4296875h0.475v0.475H1.90625Z" fill="#000000" stroke-width="1"></path><path d="M0.953125 1.4296875h0.475v0.475H0.953125Z" fill="#000000" stroke-width="1"></path><path d="M0.478125 0.4765625h9.046875v0.478125H0.478125Z" fill="#000000" stroke-width="1"></path></g></svg>