<svg xmlns="http://www.w3.org/2000/svg" viewBox="0 0 10 10" id="Content-Files-Archive-Books-2--Streamline-Pixel.svg" height="10" width="10"><title>content-files-archive-books-2</title><g><path d="m9.525 8.571875 -1.903125 0 0 -8.096875 1.903125 0 0 -0.475 -8.09375 0 0 0.475 5.7125 0 0 2.38125 -1.428125 0 0 0.478125 1.428125 0 0 1.428125 -0.475 0 0 0.475 -0.953125 0 0 -0.475 -0.475 0 0 0.475 -1.428125 0 0 -0.95 -0.478125 0 0 0.95 -2.38125 0 0 -0.95 -0.475 0 0 0.95 -0.478125 0 0 3.334375 0.478125 0 0 -2.85625 4.284375000000001 0 0 2.85625 -4.284375000000001 0 0 0.475 0.475 0 0 0.953125 0.478125 0 0 -0.953125 5.7125 0 0 0.953125 0.478125 0 0 -0.953125 1.903125 0 0 0.953125L10 10l0 -9.525 -0.475 0 0 8.096875z" fill="#000000" stroke-width="1"></path><path d="M3.334375 1.428125h1.90625V1.90625h-1.90625Z" fill="#000000" stroke-width="1"></path><path d="M1.90625 6.6656249999999995h1.428125v0.478125H1.90625Z" fill="#000000" stroke-width="1"></path><path d="M0.953125 0.475h0.478125v1.90625H0.953125Z" fill="#000000" stroke-width="1"></path><path d="m2.859375 3.334375 0 0.953125 0.475 0 0 -0.478125 1.428125 0 0 0.953125 0.478125 0 0 -0.475 0.95 0 0 0.475 0.478125 0 0 -0.953125 -1.428125 0 0 -0.475 -1.90625 0 0 -0.478125L0 2.85625l0 1.43125 0.478125 0 0 -0.953125 2.38125 0z" fill="#000000" stroke-width="1"></path></g></svg>