<svg xmlns="http://www.w3.org/2000/svg" viewBox="0 0 24 24" id="Building-Real-Eastate-Sign-House-1--Streamline-Pixel.svg" height="24" width="24"><title>building-real-eastate-sign-house-1</title><g><path d="M22.86 7.995H24v13.7175h-1.1400000000000001Z" fill="#000000" stroke-width="1"></path><path d="M21.72 21.7125h1.1400000000000001v1.1400000000000001h-1.1400000000000001Z" fill="#000000" stroke-width="1"></path><path d="M21.72 6.855h1.1400000000000001v1.1400000000000001h-1.1400000000000001Z" fill="#000000" stroke-width="1"></path><path d="M6.862500000000001 22.8525h14.857499999999998V24H6.862500000000001Z" fill="#000000" stroke-width="1"></path><path d="M24 3.4275V2.2800000000000002h-3.4275V1.1400000000000001h-1.1400000000000001v1.1400000000000001H10.290000000000001V1.1400000000000001h-1.1475v1.1400000000000001H3.435V1.1400000000000001H2.2874999999999996V24h1.1475V3.4275h5.7075000000000005v2.2874999999999996H6.862500000000001v1.1400000000000001h14.857499999999998V5.715h-1.1475V3.4275Zm-4.5675 2.2874999999999996H10.290000000000001V3.4275h9.1425Z" fill="#000000" stroke-width="1"></path><path d="M9.1425 20.572499999999998h4.574999999999999v-3.435h1.1400000000000001v3.435h4.574999999999999v-4.574999999999999h1.1400000000000001v-2.2874999999999996h-1.1400000000000001v-1.1400000000000001h-1.1400000000000001v-1.1400000000000001h-1.1475v-1.1475h-1.1400000000000001v-1.1400000000000001h-1.1475v-1.1475h-1.1400000000000001v1.1475h-1.1400000000000001v1.1400000000000001h-1.1475v1.1475h-1.1400000000000001v1.1400000000000001h-1.1475v1.1400000000000001h-1.1400000000000001v2.2874999999999996h1.1400000000000001Zm1.1475 -5.715h1.1400000000000001v-1.1475h1.1475v-1.1400000000000001h1.1400000000000001v-1.1400000000000001h1.1400000000000001v1.1400000000000001h1.1475v1.1400000000000001h1.1400000000000001v1.1475h1.1475v4.5675h-2.2874999999999996v-3.4275h-3.4275v3.4275h-2.2874999999999996Z" fill="#000000" stroke-width="1"></path><path d="M5.715 21.7125h1.1475v1.1400000000000001H5.715Z" fill="#000000" stroke-width="1"></path><path d="M5.715 6.855h1.1475v1.1400000000000001H5.715Z" fill="#000000" stroke-width="1"></path><path d="M4.574999999999999 7.995h1.1400000000000001v13.7175H4.574999999999999Z" fill="#000000" stroke-width="1"></path><path d="M1.1475 0h1.1400000000000001v1.1400000000000001H1.1475Z" fill="#000000" stroke-width="1"></path><path d="M0 1.1400000000000001h1.1475V24H0Z" fill="#000000" stroke-width="1"></path></g></svg>