<svg xmlns="http://www.w3.org/2000/svg" viewBox="0 0 24 24" id="Interface-Essential-Pacman-Loading--Streamline-Pixel.svg" height="24" width="24"><title>interface-essential-pacman-loading</title><g><g><path d="M12.57 14.857499999999998h1.1400000000000001v1.1400000000000001h2.2874999999999996v1.1475h1.1400000000000001v1.1400000000000001h-1.1400000000000001v1.1400000000000001h-2.2874999999999996v1.1475h-1.1400000000000001v1.1400000000000001h1.1400000000000001v1.1475h2.2874999999999996V24h3.4275v-1.1400000000000001h2.2874999999999996v-1.1475h1.1400000000000001V19.424999999999997H24v-3.4275h-1.1475v-2.2800000000000002h-1.1400000000000001v-1.1475H19.424999999999997v-1.1400000000000001h-3.4275v1.1400000000000001h-2.2874999999999996v1.1475h-1.1400000000000001Zm5.715 0h1.1400000000000001v1.1400000000000001h-1.1400000000000001Z" fill="#000000" stroke-width="1"></path><path d="M21.7125 4.5675h1.1400000000000001v1.1475h-1.1400000000000001Z" fill="#000000" stroke-width="1"></path><path d="M18.285 8.0025h1.1400000000000001v1.1400000000000001h-1.1400000000000001Z" fill="#000000" stroke-width="1"></path><path d="M18.285 4.5675h1.1400000000000001v1.1475h-1.1400000000000001Z" fill="#000000" stroke-width="1"></path><path d="M18.285 1.1400000000000001h1.1400000000000001v1.1475h-1.1400000000000001Z" fill="#000000" stroke-width="1"></path><path d="M14.850000000000001 4.5675h1.1475v1.1475H14.850000000000001Z" fill="#000000" stroke-width="1"></path><path d="M11.4225 17.145h1.1475v1.1400000000000001h-1.1475Z" fill="#000000" stroke-width="1"></path><path d="M11.4225 4.5675h1.1475v5.715h-1.1475Z" fill="#000000" stroke-width="1"></path><path d="M10.2825 10.2825h1.1400000000000001v1.1475h-1.1400000000000001Z" fill="#000000" stroke-width="1"></path><path d="M10.2825 2.2874999999999996h1.1400000000000001v2.2800000000000002h-1.1400000000000001Z" fill="#000000" stroke-width="1"></path><path d="M9.1425 9.1425h1.1400000000000001v1.1400000000000001h-1.1400000000000001Z" fill="#000000" stroke-width="1"></path><path d="M9.1425 1.1400000000000001h1.1400000000000001v1.1475h-1.1400000000000001Z" fill="#000000" stroke-width="1"></path><path d="M7.995 17.145h1.1475v1.1400000000000001h-1.1475Z" fill="#000000" stroke-width="1"></path><path d="M7.995 10.2825h1.1475v1.1475h-1.1475Z" fill="#000000" stroke-width="1"></path><path d="M7.995 4.5675h1.1475v1.1475h-1.1475Z" fill="#000000" stroke-width="1"></path><path d="M6.855 9.1425h1.1400000000000001v1.1400000000000001H6.855Z" fill="#000000" stroke-width="1"></path><path d="M5.7075000000000005 10.2825h1.1475v1.1475H5.7075000000000005Z" fill="#000000" stroke-width="1"></path><path d="M5.7075000000000005 4.5675h1.1475v1.1475H5.7075000000000005Z" fill="#000000" stroke-width="1"></path><path d="M4.5675 20.572499999999998h1.1400000000000001v1.1400000000000001H4.5675Z" fill="#000000" stroke-width="1"></path><path d="M4.5675 17.145h1.1400000000000001v1.1400000000000001H4.5675Z" fill="#000000" stroke-width="1"></path><path d="M4.5675 13.7175h1.1400000000000001v1.1400000000000001H4.5675Z" fill="#000000" stroke-width="1"></path><path d="M4.5675 9.1425h1.1400000000000001v1.1400000000000001H4.5675Z" fill="#000000" stroke-width="1"></path><path d="M3.4275 0h5.715v1.1400000000000001H3.4275Z" fill="#000000" stroke-width="1"></path><path d="M3.4275 10.2825h1.1400000000000001v1.1475H3.4275Z" fill="#000000" stroke-width="1"></path><path d="M2.2800000000000002 9.1425h1.1475v1.1400000000000001H2.2800000000000002Z" fill="#000000" stroke-width="1"></path><path d="M2.2800000000000002 1.1400000000000001h1.1475v1.1475H2.2800000000000002Z" fill="#000000" stroke-width="1"></path><path d="M1.1400000000000001 17.145h1.1400000000000001v1.1400000000000001H1.1400000000000001Z" fill="#000000" stroke-width="1"></path><path d="M1.1400000000000001 10.2825h1.1400000000000001v1.1475H1.1400000000000001Z" fill="#000000" stroke-width="1"></path><path d="M1.1400000000000001 2.2874999999999996h1.1400000000000001v2.2800000000000002H1.1400000000000001Z" fill="#000000" stroke-width="1"></path></g><path d="M0 4.5675h1.1400000000000001v5.715H0Z" fill="#000000" stroke-width="1"></path></g></svg>