<svg xmlns="http://www.w3.org/2000/svg" viewBox="0 0 24 24" id="Interface-Essential-Pencil-Edit-2--Streamline-Pixel.svg" height="24" width="24"><title>interface-essential-pencil-edit-2</title><g><path d="M22.8525 4.574999999999999H24v3.4275h-1.1475Z" fill="#000000" stroke-width="1"></path><path d="M21.7125 8.0025h1.1400000000000001v1.1400000000000001h-1.1400000000000001Z" fill="#000000" stroke-width="1"></path><path d="M21.7125 3.4275h1.1400000000000001V4.574999999999999h-1.1400000000000001Z" fill="#000000" stroke-width="1"></path><path d="M20.572499999999998 9.1425h1.1400000000000001v1.1400000000000001h-1.1400000000000001Z" fill="#000000" stroke-width="1"></path><path d="M20.572499999999998 2.2874999999999996h1.1400000000000001v1.1400000000000001h-1.1400000000000001Z" fill="#000000" stroke-width="1"></path><path d="M19.424999999999997 10.2825h1.1475v1.1475H19.424999999999997Z" fill="#000000" stroke-width="1"></path><path d="M19.424999999999997 8.0025h1.1475v1.1400000000000001H19.424999999999997Z" fill="#000000" stroke-width="1"></path><path d="M19.424999999999997 1.1400000000000001h1.1475v1.1475H19.424999999999997Z" fill="#000000" stroke-width="1"></path><path d="M18.285 11.43h1.1400000000000001v1.1400000000000001h-1.1400000000000001Z" fill="#000000" stroke-width="1"></path><path d="M18.285 6.855h1.1400000000000001v1.1475h-1.1400000000000001Z" fill="#000000" stroke-width="1"></path><path d="M17.137500000000003 12.57h1.1475v1.1475h-1.1475Z" fill="#000000" stroke-width="1"></path><path d="M17.137500000000003 8.0025h1.1475v1.1400000000000001h-1.1475Z" fill="#000000" stroke-width="1"></path><path d="M17.137500000000003 5.715h1.1475v1.1400000000000001h-1.1475Z" fill="#000000" stroke-width="1"></path><path d="M15.997499999999999 0h3.4275v1.1400000000000001h-3.4275Z" fill="#000000" stroke-width="1"></path><path d="M15.997499999999999 13.7175h1.1400000000000001v1.1400000000000001h-1.1400000000000001Z" fill="#000000" stroke-width="1"></path><path d="M15.997499999999999 9.1425h1.1400000000000001v1.1400000000000001h-1.1400000000000001Z" fill="#000000" stroke-width="1"></path><path d="M15.997499999999999 4.574999999999999h1.1400000000000001v1.1400000000000001h-1.1400000000000001Z" fill="#000000" stroke-width="1"></path><path d="M14.857499999999998 14.857499999999998h1.1400000000000001v1.1400000000000001h-1.1400000000000001Z" fill="#000000" stroke-width="1"></path><path d="M14.857499999999998 10.2825h1.1400000000000001v1.1475h-1.1400000000000001Z" fill="#000000" stroke-width="1"></path><path d="M14.857499999999998 5.715h1.1400000000000001v1.1400000000000001h-1.1400000000000001Z" fill="#000000" stroke-width="1"></path><path d="M14.857499999999998 3.4275h1.1400000000000001V4.574999999999999h-1.1400000000000001Z" fill="#000000" stroke-width="1"></path><path d="M14.857499999999998 1.1400000000000001h1.1400000000000001v1.1475h-1.1400000000000001Z" fill="#000000" stroke-width="1"></path><path d="M13.71 15.997499999999999h1.1475v1.1475h-1.1475Z" fill="#000000" stroke-width="1"></path><path d="M13.71 11.43h1.1475v1.1400000000000001h-1.1475Z" fill="#000000" stroke-width="1"></path><path d="M13.71 6.855h1.1475v1.1475h-1.1475Z" fill="#000000" stroke-width="1"></path><path d="M13.71 2.2874999999999996h1.1475v1.1400000000000001h-1.1475Z" fill="#000000" stroke-width="1"></path><path d="M12.57 17.145h1.1400000000000001v1.1400000000000001h-1.1400000000000001Z" fill="#000000" stroke-width="1"></path><path d="M12.57 12.57h1.1400000000000001v1.1475h-1.1400000000000001Z" fill="#000000" stroke-width="1"></path><path d="M12.57 8.0025h1.1400000000000001v1.1400000000000001h-1.1400000000000001Z" fill="#000000" stroke-width="1"></path><path d="M12.57 3.4275h1.1400000000000001V4.574999999999999h-1.1400000000000001Z" fill="#000000" stroke-width="1"></path><path d="M11.43 18.285h1.1400000000000001v1.1400000000000001h-1.1400000000000001Z" fill="#000000" stroke-width="1"></path><path d="M11.43 13.7175h1.1400000000000001v1.1400000000000001h-1.1400000000000001Z" fill="#000000" stroke-width="1"></path><path d="M11.43 9.1425h1.1400000000000001v1.1400000000000001h-1.1400000000000001Z" fill="#000000" stroke-width="1"></path><path d="M11.43 4.574999999999999h1.1400000000000001v1.1400000000000001h-1.1400000000000001Z" fill="#000000" stroke-width="1"></path><path d="M10.2825 19.424999999999997h1.1475v1.1475h-1.1475Z" fill="#000000" stroke-width="1"></path><path d="M10.2825 14.857499999999998h1.1475v1.1400000000000001h-1.1475Z" fill="#000000" stroke-width="1"></path><path d="M10.2825 10.2825h1.1475v1.1475h-1.1475Z" fill="#000000" stroke-width="1"></path><path d="M10.2825 5.715h1.1475v1.1400000000000001h-1.1475Z" fill="#000000" stroke-width="1"></path><path d="M9.1425 20.572499999999998h1.1400000000000001v1.1400000000000001h-1.1400000000000001Z" fill="#000000" stroke-width="1"></path><path d="M9.1425 15.997499999999999h1.1400000000000001v1.1475h-1.1400000000000001Z" fill="#000000" stroke-width="1"></path><path d="M9.1425 11.43h1.1400000000000001v1.1400000000000001h-1.1400000000000001Z" fill="#000000" stroke-width="1"></path><path d="M9.1425 6.855h1.1400000000000001v1.1475h-1.1400000000000001Z" fill="#000000" stroke-width="1"></path><path d="M7.995 17.145h1.1475v1.1400000000000001h-1.1475Z" fill="#000000" stroke-width="1"></path><path d="M7.995 12.57h1.1475v1.1475h-1.1475Z" fill="#000000" stroke-width="1"></path><path d="M7.995 8.0025h1.1475v1.1400000000000001h-1.1475Z" fill="#000000" stroke-width="1"></path><path d="M7.995 22.86h1.1475v-1.1475h-1.1475v-3.4275H5.715v-2.2874999999999996H2.2874999999999996v-1.1400000000000001H1.1400000000000001v1.1400000000000001H0V24h7.995Zm-1.1400000000000001 0H3.4275v-1.1475H2.2874999999999996v-1.1400000000000001H1.1400000000000001v-3.4275h3.4275v2.2800000000000002h2.2874999999999996Z" fill="#000000" stroke-width="1"></path><path d="M6.855 13.7175h1.1400000000000001v1.1400000000000001H6.855Z" fill="#000000" stroke-width="1"></path><path d="M6.855 9.1425h1.1400000000000001v1.1400000000000001H6.855Z" fill="#000000" stroke-width="1"></path><path d="M5.715 14.857499999999998h1.1400000000000001v1.1400000000000001H5.715Z" fill="#000000" stroke-width="1"></path><path d="M5.715 10.2825h1.1400000000000001v1.1475H5.715Z" fill="#000000" stroke-width="1"></path><path d="M4.5675 11.43h1.1475v1.1400000000000001H4.5675Z" fill="#000000" stroke-width="1"></path><path d="M3.4275 12.57h1.1400000000000001v1.1475H3.4275Z" fill="#000000" stroke-width="1"></path><path d="M2.2874999999999996 13.7175h1.1400000000000001v1.1400000000000001H2.2874999999999996Z" fill="#000000" stroke-width="1"></path></g></svg>