<svg xmlns="http://www.w3.org/2000/svg" viewBox="0 0 10 10" id="Content-Files-Open-Book--Streamline-Pixel.svg" height="10" width="10"><title>content-files-open-book</title><g><path d="M9.046875 2.6187500000000004h0.478125v5.715624999999999h-0.478125Z" fill="#000000" stroke-width="1"></path><path d="M8.096875 8.334375000000001h0.95v0.475h-0.95Z" fill="#000000" stroke-width="1"></path><path d="M7.14375 7.85625h0.953125v0.478125h-0.953125Z" fill="#000000" stroke-width="1"></path><path d="M5.715624999999999 7.3812500000000005h1.428125v0.475h-1.428125Z" fill="#000000" stroke-width="1"></path><path d="M6.190625 5h1.428125v0.475h-1.428125Z" fill="#000000" stroke-width="1"></path><path d="M6.190625 3.571875h1.428125v0.475h-1.428125Z" fill="#000000" stroke-width="1"></path><path d="M6.190625 2.1437500000000003h1.428125v0.475h-1.428125Z" fill="#000000" stroke-width="1"></path><path d="M5.715624999999999 1.190625h2.38125v0.475h-2.38125Z" fill="#000000" stroke-width="1"></path><path d="M5.715624999999999 4.046875h0.475v0.478125h-0.475Z" fill="#000000" stroke-width="1"></path><path d="M5.715624999999999 2.6187500000000004h0.475v0.478125h-0.475Z" fill="#000000" stroke-width="1"></path><path d="M5.237500000000001 1.665625h0.478125v0.478125h-0.478125Z" fill="#000000" stroke-width="1"></path><path d="M4.2875000000000005 7.85625h1.428125v0.478125h-1.428125Z" fill="#000000" stroke-width="1"></path><path d="M4.2875000000000005 1.665625h0.475v0.478125h-0.475Z" fill="#000000" stroke-width="1"></path><path d="M2.85625 7.3812500000000005h1.43125v0.475H2.85625Z" fill="#000000" stroke-width="1"></path><path d="M3.8093749999999997 4.046875h0.478125v0.478125h-0.478125Z" fill="#000000" stroke-width="1"></path><path d="M3.8093749999999997 2.6187500000000004h0.478125v0.478125h-0.478125Z" fill="#000000" stroke-width="1"></path><path d="M2.38125 5h1.428125v0.475H2.38125Z" fill="#000000" stroke-width="1"></path><path d="M2.38125 3.571875h1.428125v0.475H2.38125Z" fill="#000000" stroke-width="1"></path><path d="M2.38125 2.1437500000000003h1.428125v0.475H2.38125Z" fill="#000000" stroke-width="1"></path><path d="M1.90625 1.190625h2.38125v0.475H1.90625Z" fill="#000000" stroke-width="1"></path><path d="M1.90625 7.85625h0.95v0.478125H1.90625Z" fill="#000000" stroke-width="1"></path><path d="m4.2875000000000005 6.428125 0 -0.475 -1.43125 0 0 0.475 -0.95 0 0 -4.7625 -0.478125 0 0 0.478125 -0.475 0 0 0.475 0.475 0 0 4.7625 1.428125 0 0 -0.475 1.43125 0 0 0.475 1.428125 0 0 -0.475 1.428125 0 0 0.475 1.428125 0 0 -4.7625 0.475 0 0 -0.475 -0.475 0 0 -0.478125 -0.475 0 0 4.7625 -0.953125 0 0 -0.475 -1.428125 0 0 0.475 -0.478125 0 0 -4.284375000000001 -0.475 0 0 4.284375000000001 -0.475 0z" fill="#000000" stroke-width="1"></path><path d="M0.953125 8.334375000000001H1.90625v0.475H0.953125Z" fill="#000000" stroke-width="1"></path><path d="M0.475 2.6187500000000004h0.478125v5.715624999999999H0.475Z" fill="#000000" stroke-width="1"></path></g></svg>