<svg xmlns="http://www.w3.org/2000/svg" viewBox="0 0 24 24" id="Computers-Devices-Electronics-Graphic-Tablet-Draw--Streamline-Pixel.svg" height="24" width="24"><title>computers-devices-electronics-graphic-tablet-draw</title><g><path d="M22.86 4.00125H24v15.997499999999999h-1.1400000000000001Z" fill="#000000" stroke-width="1"></path><path d="M1.1400000000000001 19.99875h21.72v1.1475H1.1400000000000001Z" fill="#000000" stroke-width="1"></path><path d="m21.7125 2.8537500000000002 -2.2800000000000002 0 0 1.1475 -1.1475 0 0 1.1400000000000001 -1.1400000000000001 0 0 1.1475 -1.1475 0 0 1.1400000000000001 -1.1400000000000001 0 0 1.1400000000000001 -1.1400000000000001 0 0 1.1475 -1.1475 0 0 1.1400000000000001 -1.1400000000000001 0 0 2.2874999999999996 2.2874999999999996 0 0 -1.1475 1.1400000000000001 0 0 -1.1400000000000001 1.1400000000000001 0 0 -1.1400000000000001 1.1475 0 0 -1.1475 1.1400000000000001 0 0 -1.1400000000000001 1.1475 0 0 -1.1400000000000001 1.1400000000000001 0 0 -1.1475 1.1400000000000001 0 0 -2.2874999999999996z" fill="#000000" stroke-width="1"></path><path d="M10.2825 13.143749999999999h1.1475v1.1400000000000001h-1.1475Z" fill="#000000" stroke-width="1"></path><path d="M9.1425 8.568750000000001h1.1400000000000001v1.1475h-1.1400000000000001Z" fill="#000000" stroke-width="1"></path><path d="M6.855 14.283750000000001h3.4275v1.1475H6.855Z" fill="#000000" stroke-width="1"></path><path d="M8.0025 9.71625h1.1400000000000001v1.1400000000000001h-1.1400000000000001Z" fill="#000000" stroke-width="1"></path><path d="M6.855 7.428749999999999h2.2874999999999996v1.1400000000000001H6.855Z" fill="#000000" stroke-width="1"></path><path d="M6.855 10.85625h1.1475v1.1400000000000001H6.855Z" fill="#000000" stroke-width="1"></path><path d="M5.715 11.99625h1.1400000000000001v2.2874999999999996H5.715Z" fill="#000000" stroke-width="1"></path><path d="M5.715 8.568750000000001h1.1400000000000001v1.1475H5.715Z" fill="#000000" stroke-width="1"></path><path d="M4.574999999999999 9.71625h1.1400000000000001v1.1400000000000001H4.574999999999999Z" fill="#000000" stroke-width="1"></path><path d="m3.4275 6.28875 11.43 0 0 -1.1475 -12.57 0 0 13.7175 19.424999999999997 0 0 -11.43 -1.1400000000000001 0 0 10.2825 -17.145 0 0 -11.4225z" fill="#000000" stroke-width="1"></path><path d="M1.1400000000000001 2.8537500000000002h16.005v1.1475H1.1400000000000001Z" fill="#000000" stroke-width="1"></path><path d="M0 4.00125h1.1400000000000001v15.997499999999999H0Z" fill="#000000" stroke-width="1"></path></g></svg>