<svg xmlns="http://www.w3.org/2000/svg" viewBox="0 0 24 24" id="Design-Magic-Wand--Streamline-Pixel.svg" height="24" width="24"><title>design-magic-wand</title><g><path d="M19.42875 7.998749999999999h3.4275v1.1400000000000001h-3.4275Z" fill="#000000" stroke-width="1"></path><path d="M20.56875 13.713750000000001h1.1475v1.1400000000000001h-1.1475Z" fill="#000000" stroke-width="1"></path><path d="M20.56875 2.28375h1.1475v1.1400000000000001h-1.1475Z" fill="#000000" stroke-width="1"></path><path d="M19.42875 12.56625h1.1400000000000001v1.1475h-1.1400000000000001Z" fill="#000000" stroke-width="1"></path><path d="M19.42875 3.42375h1.1400000000000001v1.1475h-1.1400000000000001Z" fill="#000000" stroke-width="1"></path><path d="M18.28875 11.42625h1.1400000000000001v1.1400000000000001h-1.1400000000000001Z" fill="#000000" stroke-width="1"></path><path d="M18.28875 4.57125h1.1400000000000001v1.1400000000000001h-1.1400000000000001Z" fill="#000000" stroke-width="1"></path><path d="m12.57375 11.42625 1.1400000000000001 0 0 1.1400000000000001 1.1475 0 0 -1.1400000000000001 1.1400000000000001 0 0 -1.1400000000000001 1.1400000000000001 0 0 -2.2874999999999996 -1.1400000000000001 0 0 -1.1400000000000001 -2.2874999999999996 0 0 1.1400000000000001 -1.1400000000000001 0 0 1.1400000000000001 -1.1475 0 0 1.1475 1.1475 0 0 1.1400000000000001z" fill="#000000" stroke-width="1"></path><path d="M14.861250000000002 1.1437499999999998h1.1400000000000001v3.4275h-1.1400000000000001Z" fill="#000000" stroke-width="1"></path><path d="M12.57375 12.56625h1.1400000000000001v1.1475h-1.1400000000000001Z" fill="#000000" stroke-width="1"></path><path d="M11.42625 13.713750000000001h1.1475v1.1400000000000001h-1.1475Z" fill="#000000" stroke-width="1"></path><path d="M11.42625 4.57125h1.1475v1.1400000000000001h-1.1475Z" fill="#000000" stroke-width="1"></path><path d="M10.286249999999999 14.85375h1.1400000000000001v1.1475h-1.1400000000000001Z" fill="#000000" stroke-width="1"></path><path d="M10.286249999999999 10.286249999999999h1.1400000000000001v1.1400000000000001h-1.1400000000000001Z" fill="#000000" stroke-width="1"></path><path d="M10.286249999999999 3.42375h1.1400000000000001v1.1475h-1.1400000000000001Z" fill="#000000" stroke-width="1"></path><path d="M9.14625 16.00125h1.1400000000000001v1.1400000000000001h-1.1400000000000001Z" fill="#000000" stroke-width="1"></path><path d="M9.14625 11.42625h1.1400000000000001v1.1400000000000001h-1.1400000000000001Z" fill="#000000" stroke-width="1"></path><path d="M9.14625 2.28375h1.1400000000000001v1.1400000000000001h-1.1400000000000001Z" fill="#000000" stroke-width="1"></path><path d="M7.998749999999999 17.14125h1.1475v1.1400000000000001h-1.1475Z" fill="#000000" stroke-width="1"></path><path d="M7.998749999999999 12.56625h1.1475v1.1475h-1.1475Z" fill="#000000" stroke-width="1"></path><path d="M6.85875 18.28125h1.1400000000000001v1.1475h-1.1400000000000001Z" fill="#000000" stroke-width="1"></path><path d="M6.85875 13.713750000000001h1.1400000000000001v1.1400000000000001h-1.1400000000000001Z" fill="#000000" stroke-width="1"></path><path d="M5.71875 19.42875h1.1400000000000001v1.1400000000000001h-1.1400000000000001Z" fill="#000000" stroke-width="1"></path><path d="M5.71875 14.85375h1.1400000000000001v1.1475h-1.1400000000000001Z" fill="#000000" stroke-width="1"></path><path d="M4.57125 20.56875h1.1475v1.1400000000000001h-1.1475Z" fill="#000000" stroke-width="1"></path><path d="M4.57125 16.00125h1.1475v1.1400000000000001h-1.1475Z" fill="#000000" stroke-width="1"></path><path d="M3.4312500000000004 17.14125h1.1400000000000001v1.1400000000000001h-1.1400000000000001Z" fill="#000000" stroke-width="1"></path><path d="M2.28375 21.708750000000002h2.2874999999999996v1.1475h-2.2874999999999996Z" fill="#000000" stroke-width="1"></path><path d="M2.28375 18.28125h1.1475v1.1475h-1.1475Z" fill="#000000" stroke-width="1"></path><path d="M1.1437499999999998 19.42875h1.1400000000000001v2.2800000000000002h-1.1400000000000001Z" fill="#000000" stroke-width="1"></path></g></svg>